<?xml version="1.0" encoding="utf-8"?>
<!-- Generator: Adobe Illustrator 25.2.0, SVG Export Plug-In . SVG Version: 6.00 Build 0)  -->
<svg version="1.1" id="圖層_1" xmlns="http://www.w3.org/2000/svg" xmlns:xlink="http://www.w3.org/1999/xlink" x="0px" y="0px"
	 viewBox="0 0 384 512" style="enable-background:new 0 0 384 512;" xml:space="preserve">
<style type="text/css">
	.st0{fill:#FA507D;}
	.st1{fill:#FFFFFF;}
</style>
<path class="st0" d="M384,192c0,87.4-117,243-168.3,307.2c-12.3,15.3-35.1,15.3-47.4,0C116.1,435,0,279.4,0,192C0,86,86,0,192,0
	C298,0,384,86,384,192L384,192z"/>
<path class="st1" d="M287,187.4l0.3,68c0,1.2-0.1,2.3-0.2,3.4v6.9c0,9.4-7.6,17-17,17h-6.8c-0.5,0-0.9-0.4-1.4,0
	c-0.6-0.3-1.2,0-1.8,0h-24c-9.4,0-17-7.6-17-17v-37.4c0-7.5-6.1-13.6-13.6-13.6h-27.2c-7.5,0-13.6,6.1-13.6,13.6v37.4
	c0,9.4-7.6,17-17,17h-23.7c-0.6,0-1.3,0-1.9-0.1c-0.5,0-1,0.1-1.5,0.1h-6.8c-9.4,0-17-7.6-17-17v-47.5c0-0.4,0-0.8,0-1.2v-29.5H83.3
	c-7.7,0-13.6-6-13.6-13.6c0-3.8,1.3-7.2,4.2-10.2l108.8-94.9c3-3,6.4-3.4,9.3-3.4c3,0,6.4,0.9,9,3l45.2,39.8V92.5
	c0-7.5,6.1-13.6,13.6-13.6h13.6c7.5,0,13.6,6.1,13.6,13.6v51.4l22.4,19.7c3.4,3,5.1,6.4,4.7,10.2c0,7.6-6.4,13.6-13.6,13.6H287z"/>
</svg>
