<?xml version="1.0" encoding="utf-8"?>
<!-- Generator: Adobe Illustrator 16.0.3, SVG Export Plug-In . SVG Version: 6.00 Build 0)  -->
<!DOCTYPE svg PUBLIC "-//W3C//DTD SVG 1.1//EN" "http://www.w3.org/Graphics/SVG/1.1/DTD/svg11.dtd">
<svg version="1.1" id="圖層_1" xmlns="http://www.w3.org/2000/svg" xmlns:xlink="http://www.w3.org/1999/xlink" x="0px" y="0px"
	 width="1920px" height="1080px" viewBox="0 0 1920 1080" enable-background="new 0 0 1920 1080" xml:space="preserve">
<path fill="#74B7D6" d="M690,67.5C690,30.228,720.164,0,757.5,0S825,30.228,825,67.5V135h270V67.5c0-37.272,30.164-67.5,67.5-67.5
	s67.5,30.228,67.5,67.5V135h101.25c55.898,0,101.25,45.331,101.25,101.25V337.5h-945V236.25c0-55.919,45.33-101.25,101.25-101.25
	H690V67.5z M1432.5,978.75c0,55.898-45.352,101.25-101.25,101.25h-742.5c-55.92,0-101.25-45.352-101.25-101.25V405h945V978.75z"/>
</svg>
