<?xml version="1.0" encoding="utf-8"?>
<!-- Generator: Adobe Illustrator 25.2.0, SVG Export Plug-In . SVG Version: 6.00 Build 0)  -->
<svg version="1.1" id="圖層_1" xmlns="http://www.w3.org/2000/svg" xmlns:xlink="http://www.w3.org/1999/xlink" x="0px" y="0px"
	 viewBox="0 0 384 512" style="enable-background:new 0 0 384 512;" xml:space="preserve">
<style type="text/css">
	.st0{fill:#1A73E8;}
	.st1{fill:#FFFFFF;}
</style>
<path class="st0" d="M384,192c0,87.4-117,243-168.3,307.2c-12.3,15.3-35.1,15.3-47.4,0C116.1,435,0,279.4,0,192C0,86,86,0,192,0
	C298,0,384,86,384,192L384,192z"/>
<path class="st1" d="M243.4,115.8c0,23.4-31.3,65-45,81.8c-3.3,4.5-9.4,4.5-12.7,0c-13.7-16.8-45-58.4-45-81.8
	c0-28.4,23-51.4,51.4-51.4S243.4,87.4,243.4,115.8z M192,129.5c9.5,0,17.1-7.7,17.1-17.1c0-9.5-7.7-17.1-17.1-17.1
	s-17.1,7.7-17.1,17.1C174.9,121.8,182.5,129.5,192,129.5z M250.9,141.4c0.2-0.5,0.4-1,0.6-1.6l49.7-19.9c6.8-2.7,14.1,2.3,14.1,9.5
	v115.9c0,4.2-2.6,8-6.5,9.5l-62,24.8V150.2C248.3,147.3,249.7,144.3,250.9,141.4z M133.1,141.4c1.2,3,2.6,5.9,4.1,8.8v107.6
	l-54.4,21.8c-6.7,2.3-14.1-2.3-14.1-9.5V154.1c0-4.2,2.6-8.3,6.5-9.5l52.4-21C128.7,129.7,130.8,135.7,133.1,141.4L133.1,141.4z
	 M209,206.2c5.9-7.1,15.3-19.2,24.1-32.6v106.7l-82.2-23.5v-83.2c8.8,13.4,18.1,25.5,24.1,32.6C183.7,217.5,200.3,217.5,209,206.2
	L209,206.2z"/>
</svg>
